<svg xmlns="http://www.w3.org/2000/svg" xmlns:xlink="http://www.w3.org/1999/xlink" width="24" height="18" viewBox="0 0 24 18"><defs><path id="6euaa" d="M28 288l-10.82-5.5L28 277l10.82 5.5zm6 2.1c0 1.37-2.7 2.97-6.17 2.97-3.47 0-6.16-1.6-6.16-2.97v-3.54l5.47 2.64a1.58 1.58 0 0 0 1.38 0l5.48-2.64zm5.26-8.82l-10.66-5.14a1.37 1.37 0 0 0-1.2 0l-10.66 5.14c-.44.2-.74.65-.74 1.15 0 .5.3.94.74 1.15l.6.29v4.52c-.4.23-.67.64-.67 1.11 0 .71.6 1.29 1.33 1.29.74 0 1.33-.58 1.33-1.29 0-.47-.27-.88-.66-1.1v-3.9l2 .97v4.03c0 2.49 3.28 4.5 7.33 4.5 4.05 0 7.33-2.01 7.33-4.5v-4.03l3.93-1.9c.44-.2.74-.64.74-1.14 0-.5-.3-.94-.74-1.15z"/></defs><g><g transform="translate(-16 -276)"><use fill="#0059ae" xlink:href="#6euaa"/></g></g></svg>