<svg xmlns="http://www.w3.org/2000/svg" xmlns:xlink="http://www.w3.org/1999/xlink" width="15.67" height="21" viewBox="0 0 15.67 21"><defs><path id="hqe6a" d="M32.97 321.76a.04.04 0 0 1-.04-.04v-2.02l2.03 2.06h-1.99zm3.7.5a.5.5 0 0 0-.15-.35l-3.74-3.76a.5.5 0 0 0-.85.35v3.22c0 .57.47 1.04 1.04 1.04h2.7v15.2c0 .02-.01.04-.03.04h-13.6a.04.04 0 0 1-.05-.04v-18.92c0-.02.02-.04.04-.04h8.24a.5.5 0 0 0 .5-.5.5.5 0 0 0-.5-.5h-8.24c-.57 0-1.03.47-1.03 1.04v18.92c0 .57.46 1.04 1.03 1.04h13.6c.58 0 1.04-.47 1.04-1.04v-15.7z"/><path id="hqe6b" d="M33.6 325h-4.13a.47.47 0 0 0-.47.47c0 .27.21.48.47.48h4.14c.26 0 .47-.21.47-.47a.47.47 0 0 0-.47-.48z"/><path id="hqe6c" d="M33.6 330h-4.13a.47.47 0 0 0-.47.47c0 .27.21.48.47.48h4.14c.26 0 .47-.21.47-.47a.47.47 0 0 0-.47-.48z"/><path id="hqe6d" d="M32.06 334h-2.59a.47.47 0 0 0-.47.47c0 .27.21.48.47.48h2.6c.26 0 .47-.21.47-.47a.47.47 0 0 0-.48-.48z"/><path id="hqe6e" d="M27.11 326.11h-1.26v-1.25h1.26zm.43-2.11h-2.11c-.24 0-.43.2-.43.43v2.12c0 .24.19.43.43.43h2.1c.24 0 .43-.2.43-.43v-2.12a.43.43 0 0 0-.42-.43z"/><path id="hqe6f" d="M27.11 331.11h-1.26v-1.25h1.26zm.43-2.11h-2.11c-.24 0-.43.2-.43.43v2.12c0 .24.19.43.43.43h2.1c.24 0 .43-.2.43-.43v-2.12a.43.43 0 0 0-.42-.43z"/><path id="hqe6g" d="M27.11 335.11h-1.26v-1.25h1.26zm.43-2.11h-2.11c-.24 0-.43.2-.43.43v2.12c0 .24.19.43.43.43h2.1c.24 0 .43-.2.43-.43v-2.12a.43.43 0 0 0-.42-.43z"/></defs><g><g transform="translate(-21 -318)"><g><use fill="#0059ae" xlink:href="#hqe6a"/></g><g><use fill="#0059ae" xlink:href="#hqe6b"/></g><g><use fill="#0059ae" xlink:href="#hqe6c"/></g><g><use fill="#0059ae" xlink:href="#hqe6d"/></g><g><use fill="#0059ae" xlink:href="#hqe6e"/></g><g><use fill="#0059ae" xlink:href="#hqe6f"/></g><g><use fill="#0059ae" xlink:href="#hqe6g"/></g></g></g></svg>