<svg xmlns="http://www.w3.org/2000/svg" xmlns:xlink="http://www.w3.org/1999/xlink" width="18" height="19" viewBox="0 0 19.65 21"><defs><path id="b6oca" d="M36.66 250.02H18.98v-1.35c0-1.03.66-1.95 1.63-2.3l5.25-1.86v-2.2a4.66 4.66 0 0 0 3.93-.1v2.3l5.24 1.86a2.45 2.45 0 0 1 1.63 2.3zm-13.38-13.67v-.24c.47.16.95.24 1.47.24 1.35 0 2.83-.64 3.67-1.52.78 1.09 1.7 1.6 2.88 1.6.26 0 .53-.03.82-.08 0 2.96-1.98 5.37-4.42 5.37s-4.42-2.4-4.42-5.37zm4.42-5.37c2.16 0 3.97 1.9 4.34 4.4h-.01c-1.43.28-2.31-.19-3.15-1.65l-.45-.77-.41.79c-.46.86-1.98 1.62-3.27 1.62-.5 0-.93-.08-1.35-.25.46-2.37 2.21-4.14 4.3-4.14zm7.66 14.47l-4.6-1.63v-2.25a6.72 6.72 0 0 0 2.34-5.22c0-3.5-2.42-6.35-5.4-6.35-2.98 0-5.4 2.85-5.4 6.35a6.64 6.64 0 0 0 2.58 5.4v2.07l-4.6 1.63a3.43 3.43 0 0 0-2.28 3.22V251h19.65v-2.33c0-1.44-.92-2.73-2.29-3.22z"/></defs><g><g transform="translate(-18 -230)"><use fill="#0059ae" xlink:href="#b6oca"/></g></g></svg>