<svg xmlns="http://www.w3.org/2000/svg" xmlns:xlink="http://www.w3.org/1999/xlink" width="18" height="19" viewBox="0 0 20 18"><defs><path id="70iqa" d="M37.13 422.85c0 .7-.59 1.28-1.3 1.28H20.17a1.3 1.3 0 0 1-1.3-1.28v-13.7c0-.71.59-1.3 1.3-1.3h15.66c.71 0 1.3.59 1.3 1.3zM35.83 407H20.17c-1.2 0-2.17.96-2.17 2.14v13.72c0 1.18.98 2.14 2.17 2.14h15.66c1.2 0 2.17-.96 2.17-2.14v-13.72c0-1.18-.98-2.14-2.17-2.14z"/><path id="70iqb" d="M25.78 412.14h-1.74v-1.71a.43.43 0 0 0-.87 0v1.71h-1.74c-.23 0-.43.2-.43.43 0 .24.2.43.43.43h1.74v1.71c0 .24.2.43.44.43s.43-.19.43-.43V413h1.74c.24 0 .44-.2.44-.43 0-.23-.2-.43-.44-.43z"/><path id="70iqc" d="M33.78 412h-4.35c-.23 0-.43.2-.43.43 0 .23.2.43.43.43h4.35c.24 0 .44-.2.44-.43 0-.24-.2-.43-.44-.43z"/><path id="70iqd" d="M24.78 418.13c-.17-.17-.45-.17-.6 0l-1.22 1.22-1.22-1.22a.42.42 0 0 0-.61 0 .41.41 0 0 0 0 .6l1.24 1.22-1.24 1.22a.41.41 0 0 0 0 .6c.09.09.2.13.3.13.11 0 .22-.04.3-.13l1.23-1.22 1.21 1.22c.1.09.2.13.3.13.12 0 .23-.04.31-.13a.41.41 0 0 0 0-.6l-1.21-1.22 1.23-1.22a.43.43 0 0 0-.02-.6z"/><path id="70iqe" d="M33.78 420h-4.35c-.23 0-.43.2-.43.43 0 .23.2.43.43.43h4.35c.24 0 .44-.2.44-.43 0-.24-.2-.43-.44-.43z"/><path id="70iqf" d="M33.78 417h-4.35c-.23 0-.43.2-.43.43 0 .23.2.43.43.43h4.35c.24 0 .44-.2.44-.43 0-.24-.2-.43-.44-.43z"/></defs><g><g transform="translate(-18 -407)"><g><use fill="#0059ae" xlink:href="#70iqa"/></g><g><use fill="#0059ae" xlink:href="#70iqb"/></g><g><use fill="#0059ae" xlink:href="#70iqc"/></g><g><use fill="#0059ae" xlink:href="#70iqd"/></g><g><use fill="#0059ae" xlink:href="#70iqe"/></g><g><use fill="#0059ae" xlink:href="#70iqf"/></g></g></g></svg>