<svg xmlns="http://www.w3.org/2000/svg" xmlns:xlink="http://www.w3.org/1999/xlink" width="24" height="25.01" viewBox="0 0 17 25.01"><defs><path id="13uqa" d="M34.69 368.54l-.96 1.67v1.94l-1.67.96-.96 1.68h-1.93l-1.67.97-1.67-.97h-1.92l-.97-1.68-1.67-.96v-1.94l-.96-1.67.96-1.68v-1.94l1.67-.97.97-1.67h1.92l1.67-.97 1.67.97h1.93l.96 1.67 1.67.97v1.94zm-10.02 7.38h.86l1.97 1.14 1.97-1.14h.86v7.17l-2.37-2.38c-.02-.03-.03-.06-.06-.08a.55.55 0 0 0-.4-.16c-.15 0-.3.05-.4.16-.03.02-.04.05-.06.08l-2.37 2.38v-7.17zM36 368.53l-1.14-1.98v-2.29l-1.97-1.14-1.14-1.98h-2.28L27.5 360l-1.97 1.14h-2.28l-1.14 1.98-1.97 1.14v2.3L19 368.52l1.14 1.98v2.28l1.97 1.15 1.14 1.98h.29v8.53a.55.55 0 0 0 .56.56c.18 0 .34-.09.44-.22l2.96-2.97 2.96 2.97c.1.13.26.22.44.22a.55.55 0 0 0 .56-.56v-8.53h.3l1.13-1.98 1.97-1.15v-2.28z"/></defs><g><g transform="translate(-19 -360)"><use fill="#0059ae" xlink:href="#13uqa"/></g></g></svg>